<svg xmlns="http://www.w3.org/2000/svg" viewBox="0 0 275 275"><defs><style>.cls-1{fill:#5f3a96;}.cls-2{fill:#fff;}</style></defs><title>Asset 4</title><g id="Layer_2" data-name="Layer 2"><g id="Layer_1-2" data-name="Layer 1"><circle class="cls-1" cx="137.5" cy="137.5" r="137.5"/><path class="cls-2" d="M184,173.47a20.32,20.32,0,0,0-3-11.3,18.4,18.4,0,0,0-7.66-6.76A56.4,56.4,0,0,0,163,151.76q-5.7-1.43-11.46-2.64a69.2,69.2,0,0,1-10.46-3,17.3,17.3,0,0,1-7.66-5.6,15.19,15.19,0,0,1-3-9.61q0-5.17,2.11-6.92t7.71-1.74q3.06,0,8.24.37t8.13.37a72.68,72.68,0,0,0,18.75-2.22,38.33,38.33,0,0,0,13.31-6,26,26,0,0,0,7.55-8.66,22.06,22.06,0,0,0,2.54-10.35A26.82,26.82,0,0,0,195,82.25,42.5,42.5,0,0,0,184.09,70q-7-5.49-18.12-8.87a83.07,83.07,0,0,0-24.3-3.38,112.51,112.51,0,0,0-25,2.75,86.26,86.26,0,0,0-23.14,8.93A60,60,0,0,0,75.43,84.63a88.67,88.67,0,0,0-5.92,9.56,68.67,68.67,0,0,1-7.61,11.25q-3.59,4.12-7.5,4.12-4.65,0-4.65-10.67a41.59,41.59,0,0,1,3.8-17.64A46.36,46.36,0,0,1,64.08,66.72a78.37,78.37,0,0,1,15.79-11.3,99.5,99.5,0,0,1,19.7-8.19,159.5,159.5,0,0,1,45.27-6.55,119.18,119.18,0,0,1,18,1.32,100.35,100.35,0,0,1,16,3.7,92.14,92.14,0,0,1,13.73,5.7A71,71,0,0,1,204,58.74a73.51,73.51,0,0,1,9.14,8.56,50.71,50.71,0,0,1,6.71,9.35,45.24,45.24,0,0,1,4,9.82,37.75,37.75,0,0,1,1.37,10,33.38,33.38,0,0,1-2.17,11.94,32.25,32.25,0,0,1-6.92,10.72,45.62,45.62,0,0,1-11.62,8.72,67,67,0,0,1-16.8,6,107,107,0,0,1-22,2.48q19.12,0,30.53,11.09t11.41,29.79a44.18,44.18,0,0,1-1.43,11.25,39.87,39.87,0,0,1-4.07,10,52.45,52.45,0,0,1-6.34,8.66,53.71,53.71,0,0,1-8.24,7.45,88.32,88.32,0,0,1-20.71,11.2q-5.7,2.16-11.67,3.8t-12.1,2.69Q137,233.26,131,233.79t-11.83.53a100.23,100.23,0,0,1-21.82-2.17q-9.67-2.17-15.58-6.55t-5.92-10.3q0-138.92,39.83-138.92,7.71,0,12.89,8.66a84.64,84.64,0,0,0-11.36,21.71,143,143,0,0,0-6.87,27.89q-2.27,15.27-3.17,29.9t-.9,32.49a13.82,13.82,0,0,0,3.12,9.14,17.25,17.25,0,0,0,8.13,5.39,37.63,37.63,0,0,0,11.67,1.64,62.7,62.7,0,0,0,14.53-1.8,71.64,71.64,0,0,0,14.74-5.28,64.3,64.3,0,0,0,12.89-8.19,37.55,37.55,0,0,0,9.19-11.09A27.53,27.53,0,0,0,184,173.47Z"/></g></g></svg>