<?xml version="1.0" standalone="no"?>
<!DOCTYPE svg PUBLIC "-//W3C//DTD SVG 20010904//EN"
 "http://www.w3.org/TR/2001/REC-SVG-20010904/DTD/svg10.dtd">
<svg version="1.0" xmlns="http://www.w3.org/2000/svg"
 width="1100.000000pt" height="1100.000000pt" viewBox="0 0 1100.000000 1100.000000"
 preserveAspectRatio="xMidYMid meet">
<metadata>
Created by potrace 1.11, written by Peter Selinger 2001-2013
</metadata>
<g transform="translate(0.000000,1100.000000) scale(0.100000,-0.100000)"
fill="#000000" stroke="none">
<path d="M5175 10994 c-22 -2 -98 -9 -170 -14 -688 -57 -1440 -278 -2055 -603
-1558 -824 -2623 -2314 -2889 -4042 -46 -300 -55 -433 -55 -835 0 -468 21
-697 100 -1090 435 -2162 2142 -3869 4304 -4304 393 -79 622 -100 1090 -100
468 0 697 21 1090 100 2162 435 3869 2142 4304 4304 79 393 100 622 100 1090
0 468 -21 697 -100 1090 -435 2162 -2142 3869 -4304 4304 -365 73 -604 97
-1030 101 -190 1 -363 1 -385 -1z m1145 -1648 c757 -91 1386 -332 1865 -717
127 -102 359 -333 436 -434 268 -350 404 -746 386 -1115 -24 -469 -266 -850
-719 -1132 -335 -208 -835 -348 -1386 -387 -68 -5 -125 -11 -128 -13 -2 -3 37
-8 88 -12 191 -13 427 -76 603 -161 289 -139 551 -401 685 -687 182 -390 208
-922 65 -1343 -122 -359 -392 -701 -760 -962 -547 -387 -1263 -630 -2155 -730
-198 -22 -812 -25 -995 -5 -532 59 -899 190 -1110 397 -94 92 -137 169 -154
276 -12 73 1 984 19 1389 75 1675 269 2780 610 3475 165 336 348 549 570 664
122 63 197 83 345 88 120 5 136 3 201 -19 126 -44 234 -133 322 -266 l35 -52
-60 -88 c-335 -487 -564 -1157 -682 -1993 -99 -703 -141 -1317 -144 -2114 -2
-406 -2 -411 21 -475 86 -241 302 -390 637 -441 112 -17 407 -17 535 0 325 44
647 144 940 293 248 127 512 320 639 470 224 262 332 527 331 812 -1 332 -139
571 -410 710 -175 90 -350 143 -820 246 -253 56 -456 118 -560 170 -179 90
-297 239 -337 425 -19 88 -12 269 12 337 22 62 78 112 152 135 74 22 309 24
655 4 430 -25 781 13 1098 119 403 136 675 391 772 725 20 70 23 101 22 245
-1 150 -3 173 -28 255 -118 389 -437 742 -864 954 -284 142 -604 233 -972 278
-199 24 -651 23 -875 -1 -518 -56 -931 -173 -1330 -376 -293 -149 -475 -279
-685 -489 -163 -163 -225 -248 -385 -526 -277 -482 -424 -641 -605 -652 -105
-7 -148 34 -188 180 -24 89 -23 393 2 532 48 263 148 498 309 725 88 124 326
358 482 473 506 376 1145 622 1961 756 157 26 485 63 654 75 147 10 772 -3
900 -18z"/>
</g>
</svg>
